<svg width="414" height="599" viewBox="0 0 414 599" fill="none" xmlns="http://www.w3.org/2000/svg">
<path d="M-63 255.216L99.9507 33.9522L93.5781 3.84929L60.1247 0.499878L-62.2468 74.0974L-63 255.216Z" fill="#CACEEA"/>
<path d="M113.881 76.6317L108.372 87.4643L106.792 86.8295L106.691 86.9634L104.682 86.1714L101.675 90.4462L103.612 91.2149L80.1691 123.567L78.2556 122.775L74.809 127.562L76.7106 128.343L63.8807 146.053L62.1633 145.36L58.7166 149.757L60.6182 150.55L30.8461 191.649L29.414 191.061L22.2294 200.898L23.6972 201.515L-61.6435 319.299V580.755L-61.9465 628.738L-61.6435 627.917V642.629H-19.6179L110.013 237.6L112.152 238.497L115.313 226.104L113.875 225.522L128.749 179.035L131.114 180.025L132.553 174.026L130.609 173.234L137.033 153.159L139.832 154.306L140.694 148.674L138.727 147.865L150.879 109.887L152.377 110.481L153.862 105.583L150.065 104.08L153.862 92.6476L113.881 76.6317Z" fill="#CACEEA"/>
<path d="M159.54 22.2621C151.452 38.1375 140.853 46.2513 140.853 46.2513L138.462 45.3497L137.577 48.12L138.874 48.5917L132.956 60.0609L113.88 72.3779L112.146 75.8407L156.462 93.9311L157.615 89.31L156.42 88.8503L154.913 68.1448L157.508 55.386L159.247 56.0189L160.401 53.5173L158.333 52.7471C157.089 33.7193 162.517 23.6413 162.517 23.6413L159.54 22.2621Z" fill="#CACEEA"/>
<path d="M163.862 15.3302C163.433 15.3302 163.013 15.4573 162.657 15.6955C162.3 15.9336 162.022 16.2721 161.857 16.6681C161.693 17.0641 161.65 17.4999 161.734 17.9203C161.818 18.3407 162.024 18.7269 162.328 19.03C162.631 19.333 163.018 19.5395 163.439 19.6231C163.86 19.7067 164.296 19.6638 164.693 19.4998C165.089 19.3357 165.428 19.0579 165.667 18.7015C165.905 18.3451 166.032 17.9261 166.032 17.4975C166.031 16.9232 165.802 16.3728 165.395 15.9667C164.988 15.5606 164.437 15.3318 163.862 15.3302Z" fill="#CACEEA"/>
<path d="M348.167 167.529C345.309 164.544 342.454 161.421 339.6 158.161L344.197 156.209L333.239 147.773L331.5 148.501C328.003 144.811 319.753 135.933 311.461 125.813L306.416 119.497C304.258 116.72 302.171 113.914 300.234 111.138L306.404 108.535L301.753 104.069L296.48 106.415C291.016 100.2 275.102 80.3545 255.644 40.4839L257.162 39.7735C257.594 39.5689 257.933 39.21 258.112 38.7678C258.292 38.3255 258.298 37.8322 258.131 37.3853V37.3554C258.037 37.1103 257.894 36.8872 257.71 36.6999C257.526 36.5127 257.305 36.3654 257.062 36.2673C256.818 36.1692 256.557 36.1224 256.295 36.1299C256.032 36.1373 255.774 36.1989 255.536 36.3106L253.886 37.0927L246.438 24.2384L244.71 25.0563L250.819 38.5674L248.853 39.4988C248.627 39.6055 248.424 39.7555 248.256 39.9404C248.088 40.1254 247.958 40.3415 247.873 40.5766C247.789 40.8117 247.752 41.061 247.764 41.3105C247.776 41.5599 247.837 41.8045 247.944 42.0303C248.051 42.2561 248.201 42.4587 248.386 42.6265C248.571 42.7943 248.788 42.924 249.023 43.0083C249.259 43.0926 249.508 43.1297 249.758 43.1176C250.008 43.1055 250.253 43.0444 250.479 42.9378L252.272 42.09C255.53 49.6724 269.884 80.5336 272.293 117.198L268.317 118.989V124.643L272.986 122.673C273.166 126.016 273.488 133.044 273.584 141.874C273.716 151.038 273.638 162.143 272.986 173.093L268.311 175.057L267.492 188.789L273.584 186.198C273.381 189.41 272.986 194.7 272.341 201.805C268.754 240.487 256.851 332.856 219.99 435.297C219.99 435.297 274.337 427.093 305.83 410.68C305.83 410.68 308.586 269.414 293.7 192.163L323.095 178.873C330.268 187.595 408.922 282.465 460.065 322.623V234.26C460.065 234.26 404.976 226.982 348.167 167.529ZM273.817 84.9517C273.817 84.9517 280.806 98.8986 288.224 110.111L281.983 112.887C280.806 107.227 277.93 94.5999 273.817 84.9517ZM287.411 136.005L296.522 132.148C297.903 134.536 304.927 146.477 312.495 156.471L291.399 165.338C290.837 159.893 289.259 145.438 287.411 136.005Z" fill="#CACEEA"/>
<path d="M287.83 45.4756L459.425 268.949L458.206 81.7877L327.776 2.32727L294.956 14.6861L287.83 45.4756Z" fill="#CACEEA"/>
</svg>
