<svg width="414" height="408" viewBox="0 0 414 408" fill="none" xmlns="http://www.w3.org/2000/svg">
<g opacity="0.35">
<path d="M-141.853 89.9181C-141.853 89.9181 -105.218 55.7173 -75.9176 77.0928C-46.617 98.4683 -60.5289 135.519 -60.5289 135.519C-60.5289 135.519 -41.6444 120.214 -27.3544 135.519C-13.0644 150.824 -35.9156 180.75 -35.9156 180.75C-35.9156 180.75 -12.3723 178.398 -2.74103 196.14C6.89029 213.882 -21.3972 250.128 -21.3972 250.128C-21.3972 250.128 14.4883 232.486 31.4965 260.673C48.5047 288.86 -18.8075 309.217 -18.8075 309.217C-18.8075 309.217 -21.6612 333.62 -67.863 334.668C-114.065 335.715 -117.668 298.785 -117.668 298.785C-117.668 298.785 -166.466 343.403 -203.921 317.646C-241.377 291.888 -229.605 258.364 -222.114 246.273C-222.114 246.273 -239.95 221.335 -229.962 198.898C-219.974 176.46 -187.869 189.136 -187.869 189.136C-187.869 189.136 -216.763 160.443 -197.501 129.449C-178.238 98.4541 -149.344 109.619 -149.344 109.619C-149.344 109.619 -154.452 99.2806 -141.853 89.9181Z" fill="#CACEEA"/>
<path d="M447.277 4.14507C439.287 10.0661 437.51 22.813 443.567 30.7291C433.729 25.3852 420.231 25.941 412.504 34.0352C404.778 42.1293 406.083 57.7335 416.2 62.6C407.353 61.5597 398.3 60.5337 389.625 62.5643C380.949 64.595 372.609 70.3237 369.998 78.8311C367.387 87.3386 372.631 98.1261 381.463 99.2875C369.335 100.299 362.871 116.623 368.621 127.368C374.371 138.113 388.055 142.63 400.169 141.162C412.283 139.694 423.227 133.467 433.7 127.204C434.057 135.469 442.896 140.385 450.651 143.307C457.786 145.993 465.519 148.408 472.968 146.727C480.416 145.045 487.122 137.763 485.417 130.339C504.473 150.46 538.261 154.508 561.54 139.459C584.819 124.411 594.964 91.9628 584.37 66.3621C579.433 54.4203 568.51 43.2908 555.611 44.274C553.214 28.1284 543.191 12.681 528.209 6.17574C513.227 -0.32954 493.571 3.86006 484.404 17.3765C475.657 7.50815 461.082 -6.20068 447.277 4.14507Z" fill="#CACEEA"/>
<g opacity="0.48">
<path opacity="0.42" d="M281.505 324.55C267.052 315.788 250.083 312.099 233.291 314.069C228.354 314.66 223.125 315.943 219.814 319.648C216.504 323.353 216.347 330.136 220.635 332.658C209.876 330.243 198.761 327.927 187.91 329.865C177.058 331.803 166.414 339.007 163.803 349.73C161.192 360.454 169.91 373.329 180.882 372.21C170.702 374.697 168.39 389.802 175.089 397.861C181.788 405.919 193.403 407.907 203.862 407.259C219.34 406.268 234.191 400.788 246.596 391.491C259.809 406.34 282.939 407.066 302.28 402.428C308.772 400.868 315.421 398.687 320.173 393.992C324.924 389.296 327.143 381.466 323.647 375.787C331.015 381.31 339.928 384.394 349.138 384.608C362.743 384.822 377.226 376.642 380.35 363.418C383.475 350.193 370.312 334.839 357.328 338.9C365.254 337.069 369.713 327.393 367.395 319.605C361.766 300.631 338.144 305.355 323.297 302.989C308.9 300.709 276.425 300.41 281.505 324.55Z" fill="#8384BF"/>
</g>
</g>
</svg>
